<?xml version="1.0" encoding="UTF-8" standalone="no"?>
<!DOCTYPE svg PUBLIC "-//W3C//DTD SVG 1.1//EN"
 "http://www.w3.org/Graphics/SVG/1.1/DTD/svg11.dtd">
<!-- Generated by graphviz version 2.43.0 (0)
 -->
<!-- Title: FSM Pages: 1 -->
<svg width="559pt" height="141pt"
 viewBox="0.00 0.00 558.97 141.29" xmlns="http://www.w3.org/2000/svg" xmlns:xlink="http://www.w3.org/1999/xlink">
<g id="graph0" class="graph" transform="scale(1 1) rotate(0) translate(4 137.29)">
<title>FSM</title>
<polygon fill="white" stroke="transparent" points="-4,4 -4,-137.29 554.97,-137.29 554.97,4 -4,4"/>
<!-- null -->
<g id="node1" class="node">
<title>null</title>
<ellipse fill="black" stroke="black" cx="1.8" cy="-56" rx="1.8" ry="1.8"/>
</g>
<!-- {1, 2, 3} -->
<g id="node2" class="node">
<title>{1, 2, 3}</title>
<ellipse fill="none" stroke="black" cx="96.6" cy="-56" rx="51.99" ry="51.99"/>
<ellipse fill="none" stroke="black" cx="96.6" cy="-56" rx="55.99" ry="55.99"/>
<text text-anchor="middle" x="96.6" y="-52.3" font-family="Times,serif" font-size="14.00">{1, 2, 3}</text>
</g>
<!-- null&#45;&gt;{1, 2, 3} -->
<g id="edge1" class="edge">
<title>null&#45;&gt;{1, 2, 3}</title>
<path fill="none" stroke="black" d="M3.84,-56C7.09,-56 17.61,-56 30.43,-56"/>
<polygon fill="black" stroke="black" points="30.59,-59.5 40.59,-56 30.59,-52.5 30.59,-59.5"/>
</g>
<!-- {2, 4} -->
<g id="node3" class="node">
<title>{2, 4}</title>
<ellipse fill="none" stroke="black" cx="260.89" cy="-56" rx="40.11" ry="40.11"/>
<ellipse fill="none" stroke="black" cx="260.89" cy="-56" rx="44.09" ry="44.09"/>
<text text-anchor="middle" x="260.89" y="-52.3" font-family="Times,serif" font-size="14.00">{2, 4}</text>
</g>
<!-- {1, 2, 3}&#45;&gt;{2, 4} -->
<g id="edge2" class="edge">
<title>{1, 2, 3}&#45;&gt;{2, 4}</title>
<path fill="none" stroke="black" d="M152.99,-56C170.18,-56 189.08,-56 206.15,-56"/>
<polygon fill="black" stroke="black" points="206.51,-59.5 216.51,-56 206.51,-52.5 206.51,-59.5"/>
<text text-anchor="middle" x="184.59" y="-59.8" font-family="Times,serif" font-size="14.00">0, 1</text>
</g>
<!-- {2, 4}&#45;&gt;{2, 4} -->
<g id="edge7" class="edge">
<title>{2, 4}&#45;&gt;{2, 4}</title>
<path fill="none" stroke="black" d="M248.64,-98.8C249.39,-109.91 253.48,-118.29 260.89,-118.29 265.87,-118.29 269.34,-114.51 271.32,-108.65"/>
<polygon fill="black" stroke="black" points="274.76,-109.27 273.13,-98.8 267.88,-108 274.76,-109.27"/>
<text text-anchor="middle" x="260.89" y="-122.09" font-family="Times,serif" font-size="14.00">1</text>
</g>
<!-- {2, 3} -->
<g id="node4" class="node">
<title>{2, 3}</title>
<ellipse fill="none" stroke="black" cx="395.48" cy="-56" rx="40.11" ry="40.11"/>
<ellipse fill="none" stroke="black" cx="395.48" cy="-56" rx="44.09" ry="44.09"/>
<text text-anchor="middle" x="395.48" y="-52.3" font-family="Times,serif" font-size="14.00">{2, 3}</text>
</g>
<!-- {2, 4}&#45;&gt;{2, 3} -->
<g id="edge6" class="edge">
<title>{2, 4}&#45;&gt;{2, 3}</title>
<path fill="none" stroke="black" d="M305.3,-56C316.64,-56 328.98,-56 340.78,-56"/>
<polygon fill="black" stroke="black" points="340.97,-59.5 350.97,-56 340.97,-52.5 340.97,-59.5"/>
<text text-anchor="middle" x="328.18" y="-59.8" font-family="Times,serif" font-size="14.00">0</text>
</g>
<!-- {2, 3}&#45;&gt;{2, 4} -->
<g id="edge4" class="edge">
<title>{2, 3}&#45;&gt;{2, 4}</title>
<path fill="none" stroke="black" d="M354.05,-40.11C344.05,-37.75 333.29,-36.54 323.18,-38 319.79,-38.48 316.32,-39.12 312.84,-39.85"/>
<polygon fill="black" stroke="black" points="312,-36.45 303.08,-42.16 313.61,-43.27 312,-36.45"/>
<text text-anchor="middle" x="328.18" y="-41.8" font-family="Times,serif" font-size="14.00">1</text>
</g>
<!-- {4} -->
<g id="node5" class="node">
<title>{4}</title>
<ellipse fill="none" stroke="black" cx="518.37" cy="-56" rx="28.68" ry="28.68"/>
<ellipse fill="none" stroke="black" cx="518.37" cy="-56" rx="32.7" ry="32.7"/>
<text text-anchor="middle" x="518.37" y="-52.3" font-family="Times,serif" font-size="14.00">{4}</text>
</g>
<!-- {2, 3}&#45;&gt;{4} -->
<g id="edge3" class="edge">
<title>{2, 3}&#45;&gt;{4}</title>
<path fill="none" stroke="black" d="M439.78,-56C451.4,-56 463.94,-56 475.49,-56"/>
<polygon fill="black" stroke="black" points="475.75,-59.5 485.75,-56 475.75,-52.5 475.75,-59.5"/>
<text text-anchor="middle" x="462.78" y="-59.8" font-family="Times,serif" font-size="14.00">0</text>
</g>
<!-- {4}&#45;&gt;{2, 3} -->
<g id="edge5" class="edge">
<title>{4}&#45;&gt;{2, 3}</title>
<path fill="none" stroke="black" d="M488.52,-42.92C481.84,-40.46 474.67,-38.27 467.78,-37 460.92,-35.73 453.76,-35.86 446.73,-36.85"/>
<polygon fill="black" stroke="black" points="445.71,-33.48 436.58,-38.85 447.07,-40.35 445.71,-33.48"/>
<text text-anchor="middle" x="462.78" y="-40.8" font-family="Times,serif" font-size="14.00">0</text>
</g>
</g>
</svg>
