<?xml version="1.0" encoding="UTF-8" standalone="no"?>
<!DOCTYPE svg PUBLIC "-//W3C//DTD SVG 1.1//EN"
 "http://www.w3.org/Graphics/SVG/1.1/DTD/svg11.dtd">
<!-- Generated by graphviz version 2.43.0 (0)
 -->
<!-- Title: DFA Pages: 1 -->
<svg width="194pt" height="94pt"
 viewBox="0.00 0.00 193.59 94.50" xmlns="http://www.w3.org/2000/svg" xmlns:xlink="http://www.w3.org/1999/xlink">
<g id="graph0" class="graph" transform="scale(1 1) rotate(0) translate(4 90.5)">
<title>DFA</title>
<polygon fill="white" stroke="transparent" points="-4,4 -4,-90.5 189.59,-90.5 189.59,4 -4,4"/>
<!-- S1 -->
<g id="node1" class="node">
<title>S1</title>
<ellipse fill="none" stroke="black" cx="67.35" cy="-26.75" rx="22.96" ry="22.96"/>
<ellipse fill="none" stroke="black" cx="67.35" cy="-26.75" rx="27" ry="27"/>
<text text-anchor="middle" x="67.35" y="-23.05" font-family="Times,serif" font-size="14.00">S1</text>
</g>
<!-- S1&#45;&gt;S1 -->
<g id="edge1" class="edge">
<title>S1&#45;&gt;S1</title>
<path fill="none" stroke="black" d="M59.15,-52.5C58.69,-62.83 61.42,-71.5 67.35,-71.5 71.15,-71.5 73.63,-67.94 74.81,-62.67"/>
<polygon fill="black" stroke="black" points="78.31,-62.73 75.55,-52.5 71.33,-62.22 78.31,-62.73"/>
<text text-anchor="middle" x="67.35" y="-75.3" font-family="Times,serif" font-size="14.00">1</text>
</g>
<!-- S2 -->
<g id="node2" class="node">
<title>S2</title>
<ellipse fill="none" stroke="black" cx="162.84" cy="-26.75" rx="23" ry="23"/>
<text text-anchor="middle" x="162.84" y="-23.05" font-family="Times,serif" font-size="14.00">S2</text>
</g>
<!-- S1&#45;&gt;S2 -->
<g id="edge2" class="edge">
<title>S1&#45;&gt;S2</title>
<path fill="none" stroke="black" d="M94.39,-26.75C105.4,-26.75 118.32,-26.75 129.89,-26.75"/>
<polygon fill="black" stroke="black" points="130.05,-30.25 140.05,-26.75 130.05,-23.25 130.05,-30.25"/>
<text text-anchor="middle" x="117.1" y="-30.55" font-family="Times,serif" font-size="14.00">0</text>
</g>
<!-- S2&#45;&gt;S1 -->
<g id="edge3" class="edge">
<title>S2&#45;&gt;S1</title>
<path fill="none" stroke="black" d="M142.66,-15.46C136.33,-12.32 129.11,-9.34 122.1,-7.75 114.8,-6.09 107.12,-7.07 99.92,-9.28"/>
<polygon fill="black" stroke="black" points="98.57,-6.05 90.49,-12.91 101.08,-12.58 98.57,-6.05"/>
<text text-anchor="middle" x="117.1" y="-11.55" font-family="Times,serif" font-size="14.00">0</text>
</g>
<!-- S2&#45;&gt;S2 -->
<g id="edge4" class="edge">
<title>S2&#45;&gt;S2</title>
<path fill="none" stroke="black" d="M154.8,-48.13C153.8,-58.42 156.48,-67.5 162.84,-67.5 166.92,-67.5 169.48,-63.77 170.54,-58.39"/>
<polygon fill="black" stroke="black" points="174.05,-58.25 170.89,-48.13 167.05,-58 174.05,-58.25"/>
<text text-anchor="middle" x="162.84" y="-71.3" font-family="Times,serif" font-size="14.00">1</text>
</g>
<!-- null -->
<g id="node3" class="node">
<title>null</title>
<ellipse fill="black" stroke="black" cx="1.8" cy="-26.75" rx="1.8" ry="1.8"/>
</g>
<!-- null&#45;&gt;S1 -->
<g id="edge5" class="edge">
<title>null&#45;&gt;S1</title>
<path fill="none" stroke="black" d="M3.9,-26.75C7.35,-26.75 18.42,-26.75 30.31,-26.75"/>
<polygon fill="black" stroke="black" points="30.33,-30.25 40.33,-26.75 30.33,-23.25 30.33,-30.25"/>
</g>
</g>
</svg>
